solid OpenSCAD_Model
  facet normal 1 -0 0
    outer loop
      vertex 4.44675 19.9033 10
      vertex 4.44675 24.087 -0.000537872
      vertex 4.44675 24.087 10
    endloop
  endfacet
  facet normal 1 0 0
    outer loop
      vertex 4.44675 24.087 -0.000537872
      vertex 4.44675 19.9033 10
      vertex 4.44675 19.9033 -0.000537872
    endloop
  endfacet
  facet normal 0.686793 -0.726854 0
    outer loop
      vertex 3.48563 18.9952 -0.000537872
      vertex 4.44675 19.9033 10
      vertex 3.48563 18.9952 10
    endloop
  endfacet
  facet normal 0.686793 -0.726854 0
    outer loop
      vertex 4.44675 19.9033 10
      vertex 3.48563 18.9952 -0.000537872
      vertex 4.44675 19.9033 -0.000537872
    endloop
  endfacet
  facet normal 0 0 -1
    outer loop
      vertex -0.00154114 -0.00476933 -0.000537872
      vertex 3.48563 18.9952 -0.000537872
      vertex 3.48563 -0.00476933 -0.000537872
    endloop
  endfacet
  facet normal 0 0 -1
    outer loop
      vertex -0.00154114 24.9952 -0.000537872
      vertex 3.48563 18.9952 -0.000537872
      vertex -0.00154114 -0.00476933 -0.000537872
    endloop
  endfacet
  facet normal 0 0 -1
    outer loop
      vertex 3.48563 18.9952 -0.000537872
      vertex -0.00154114 24.9952 -0.000537872
      vertex 3.48563 24.9952 -0.000537872
    endloop
  endfacet
  facet normal 0 0 -1
    outer loop
      vertex 3.48563 18.9952 -0.000537872
      vertex 4.44675 24.087 -0.000537872
      vertex 4.44675 19.9033 -0.000537872
    endloop
  endfacet
  facet normal -0 0 -1
    outer loop
      vertex 4.44675 24.087 -0.000537872
      vertex 3.48563 18.9952 -0.000537872
      vertex 3.48563 24.9952 -0.000537872
    endloop
  endfacet
  facet normal -0 0 1
    outer loop
      vertex 2.99846 12 25.3995
      vertex 3.48563 -0.00476933 25.3995
      vertex 3.48563 12 25.3995
    endloop
  endfacet
  facet normal 0 0 1
    outer loop
      vertex 3.48563 -0.00476933 25.3995
      vertex 2.99846 12 25.3995
      vertex 2.99846 -0.00476933 25.3995
    endloop
  endfacet
  facet normal -0.999417 -0.000172636 0.0341531
    outer loop
      vertex 0.00545502 -0.00476933 22.6042
      vertex 0.00392914 4.16189 22.5806
      vertex -0.00154114 -0.00476933 22.3995
    endloop
  endfacet
  facet normal -0.999544 0 0.0301859
    outer loop
      vertex -0.00154114 12 22.3995
      vertex 0.00392914 4.16189 22.5806
      vertex 0.00392914 12 22.5806
    endloop
  endfacet
  facet normal -0.999544 0 0.0301859
    outer loop
      vertex 0.00392914 4.16189 22.5806
      vertex -0.00154114 12 22.3995
      vertex -0.00154114 -0.00476933 22.3995
    endloop
  endfacet
  facet normal -0.23092 0 0.972973
    outer loop
      vertex 2.20535 12 25.2927
      vertex 2.40684 4.16189 25.3405
      vertex 2.40684 12 25.3405
    endloop
  endfacet
  facet normal -0.23092 0 0.972973
    outer loop
      vertex 2.40684 4.16189 25.3405
      vertex 2.20535 12 25.2927
      vertex 2.20535 4.16189 25.2927
    endloop
  endfacet
  facet normal -0.23092 0.00014454 0.972973
    outer loop
      vertex 2.38809 -0.00476933 25.3367
      vertex 2.40684 4.16189 25.3405
      vertex 2.20535 4.16189 25.2927
    endloop
  endfacet
  facet normal -0.236765 -0.000126666 0.971567
    outer loop
      vertex 2.38809 -0.00476933 25.3367
      vertex 2.20535 4.16189 25.2927
      vertex 2.18907 -0.00476933 25.2882
    endloop
  endfacet
  facet normal -0.297511 0.000128821 0.954718
    outer loop
      vertex 2.18907 -0.00476933 25.2882
      vertex 2.20535 4.16189 25.2927
      vertex 2.00762 4.16189 25.2311
    endloop
  endfacet
  facet normal -0.30253 -0.000111376 0.95314
    outer loop
      vertex 2.18907 -0.00476933 25.2882
      vertex 2.00762 4.16189 25.2311
      vertex 1.99382 -0.00476933 25.2262
    endloop
  endfacet
  facet normal -0.362647 0.000112536 0.931927
    outer loop
      vertex 1.99382 -0.00476933 25.2262
      vertex 2.00762 4.16189 25.2311
      vertex 1.81462 4.16189 25.156
    endloop
  endfacet
  facet normal -0.366853 -9.61106e-05 0.930279
    outer loop
      vertex 1.99382 -0.00476933 25.2262
      vertex 1.81462 4.16189 25.156
      vertex 1.80325 -0.00476933 25.1511
    endloop
  endfacet
  facet normal -0.426092 9.56956e-05 0.90468
    outer loop
      vertex 1.80325 -0.00476933 25.1511
      vertex 1.81462 4.16189 25.156
      vertex 1.62727 4.16189 25.0678
    endloop
  endfacet
  facet normal -0.429472 -7.90988e-05 0.90308
    outer loop
      vertex 1.80325 -0.00476933 25.1511
      vertex 1.62727 4.16189 25.0678
      vertex 1.61826 -0.00476933 25.0631
    endloop
  endfacet
  facet normal -0.487509 7.97099e-05 0.873118
    outer loop
      vertex 1.61826 -0.00476933 25.0631
      vertex 1.62727 4.16189 25.0678
      vertex 1.44645 4.16189 24.9668
    endloop
  endfacet
  facet normal -0.490099 -6.05985e-05 0.871667
    outer loop
      vertex 1.61826 -0.00476933 25.0631
      vertex 1.44645 4.16189 24.9668
      vertex 1.4397 -0.00476933 24.9627
    endloop
  endfacet
  facet normal -0.546546 6.43117e-05 0.837429
    outer loop
      vertex 1.4397 -0.00476933 24.9627
      vertex 1.44645 4.16189 24.9668
      vertex 1.27302 4.16189 24.8536
    endloop
  endfacet
  facet normal -0.548462 -4.51393e-05 0.836175
    outer loop
      vertex 1.4397 -0.00476933 24.9627
      vertex 1.27302 4.16189 24.8536
      vertex 1.26842 -0.00476933 24.8504
    endloop
  endfacet
  facet normal -0.603067 4.50999e-05 0.797691
    outer loop
      vertex 1.26842 -0.00476933 24.8504
      vertex 1.27302 4.16189 24.8536
      vertex 1.10782 4.16189 24.7287
    endloop
  endfacet
  facet normal -0.604246 -2.64512e-05 0.796798
    outer loop
      vertex 1.26842 -0.00476933 24.8504
      vertex 1.10782 4.16189 24.7287
      vertex 1.10519 -0.00476933 24.7266
    endloop
  endfacet
  facet normal -0.656752 2.84306e-05 0.754107
    outer loop
      vertex 1.10519 -0.00476933 24.7266
      vertex 1.10782 4.16189 24.7287
      vertex 0.950798 4.16189 24.592
    endloop
  endfacet
  facet normal -0.657188 0 0.753727
    outer loop
      vertex 1.10519 -0.00476933 24.7266
      vertex 0.950798 4.16189 24.592
      vertex 0.950798 -0.00476933 24.592
    endloop
  endfacet
  facet normal -0.707125 0 0.707088
    outer loop
      vertex 0.805954 4.16189 24.4471
      vertex 0.950798 12 24.592
      vertex 0.805954 12 24.4471
    endloop
  endfacet
  facet normal -0.707125 0 0.707088
    outer loop
      vertex 0.805954 4.16189 24.4471
      vertex 0.950798 4.16189 24.592
      vertex 0.950798 12 24.592
    endloop
  endfacet
  facet normal -0.707125 0 0.707088
    outer loop
      vertex 0.805954 -0.00476933 24.4471
      vertex 0.950798 4.16189 24.592
      vertex 0.805954 4.16189 24.4471
    endloop
  endfacet
  facet normal -0.707125 0 0.707088
    outer loop
      vertex 0.950798 4.16189 24.592
      vertex 0.805954 -0.00476933 24.4471
      vertex 0.950798 -0.00476933 24.592
    endloop
  endfacet
  facet normal -0.753708 0 0.657209
    outer loop
      vertex 0.805954 -0.00476933 24.4471
      vertex 0.805954 4.16189 24.4471
      vertex 0.671326 -0.00476933 24.2927
    endloop
  endfacet
  facet normal -0.754089 2.8453e-05 0.656773
    outer loop
      vertex 0.671326 -0.00476933 24.2927
      vertex 0.805954 4.16189 24.4471
      vertex 0.669197 4.16189 24.2901
    endloop
  endfacet
  facet normal -0.796798 -2.64512e-05 0.604246
    outer loop
      vertex 0.671326 -0.00476933 24.2927
      vertex 0.669197 4.16189 24.2901
      vertex 0.547546 -0.00476933 24.1295
    endloop
  endfacet
  facet normal -0.797709 4.65209e-05 0.603043
    outer loop
      vertex 0.547546 -0.00476933 24.1295
      vertex 0.669197 4.16189 24.2901
      vertex 0.544312 4.16189 24.1249
    endloop
  endfacet
  facet normal -0.836193 -4.36502e-05 0.548436
    outer loop
      vertex 0.547546 -0.00476933 24.1295
      vertex 0.544312 4.16189 24.1249
      vertex 0.435204 -0.00476933 23.9582
    endloop
  endfacet
  facet normal -0.837401 6.18739e-05 0.546589
    outer loop
      vertex 0.435204 -0.00476933 23.9582
      vertex 0.544312 4.16189 24.1249
      vertex 0.431114 4.16189 23.9515
    endloop
  endfacet
  facet normal -0.871651 -6.30306e-05 0.490127
    outer loop
      vertex 0.435204 -0.00476933 23.9582
      vertex 0.431114 4.16189 23.9515
      vertex 0.334801 -0.00476933 23.7796
    endloop
  endfacet
  facet normal -0.873127 7.96663e-05 0.487494
    outer loop
      vertex 0.334801 -0.00476933 23.7796
      vertex 0.431114 4.16189 23.9515
      vertex 0.330154 4.16189 23.7706
    endloop
  endfacet
  facet normal -0.90308 -7.90988e-05 0.429472
    outer loop
      vertex 0.334801 -0.00476933 23.7796
      vertex 0.330154 4.16189 23.7706
      vertex 0.246826 -0.00476933 23.5947
    endloop
  endfacet
  facet normal -0.90468 9.56956e-05 0.426092
    outer loop
      vertex 0.246826 -0.00476933 23.5947
      vertex 0.330154 4.16189 23.7706
      vertex 0.241913 4.16189 23.5833
    endloop
  endfacet
  facet normal -0.930279 -9.61106e-05 0.366853
    outer loop
      vertex 0.246826 -0.00476933 23.5947
      vertex 0.241913 4.16189 23.5833
      vertex 0.171677 -0.00476933 23.4041
    endloop
  endfacet
  facet normal -0.931927 0.000112536 0.362647
    outer loop
      vertex 0.171677 -0.00476933 23.4041
      vertex 0.241913 4.16189 23.5833
      vertex 0.166809 4.16189 23.3903
    endloop
  endfacet
  facet normal -0.953147 -0.000111461 0.302507
    outer loop
      vertex 0.171677 -0.00476933 23.4041
      vertex 0.166809 4.16189 23.3903
      vertex 0.109711 -0.00476933 23.2088
    endloop
  endfacet
  facet normal -0.954715 0.000127117 0.297522
    outer loop
      vertex 0.109711 -0.00476933 23.2088
      vertex 0.166809 4.16189 23.3903
      vertex 0.105194 4.16189 23.1926
    endloop
  endfacet
  facet normal -0.971569 -0.000128481 0.236756
    outer loop
      vertex 0.109711 -0.00476933 23.2088
      vertex 0.105194 4.16189 23.1926
      vertex 0.0612106 -0.00476933 23.0098
    endloop
  endfacet
  facet normal -0.972975 0.000142719 0.230912
    outer loop
      vertex 0.0612106 -0.00476933 23.0098
      vertex 0.105194 4.16189 23.1926
      vertex 0.057373 4.16189 22.9911
    endloop
  endfacet
  facet normal -0.985453 -0.000143049 0.169947
    outer loop
      vertex 0.0612106 -0.00476933 23.0098
      vertex 0.057373 4.16189 22.9911
      vertex 0.0263977 -0.00476933 22.808
    endloop
  endfacet
  facet normal -0.986587 0.000160407 0.163234
    outer loop
      vertex 0.0263977 -0.00476933 22.808
      vertex 0.057373 4.16189 22.9911
      vertex 0.0235672 4.16189 22.7868
    endloop
  endfacet
  facet normal -0.99476 -0.000155535 0.102236
    outer loop
      vertex 0.0263977 -0.00476933 22.808
      vertex 0.0235672 4.16189 22.7868
      vertex 0.00545502 -0.00476933 22.6042
    endloop
  endfacet
  facet normal -0.995494 0.000172311 0.0948265
    outer loop
      vertex 0.00545502 -0.00476933 22.6042
      vertex 0.0235672 4.16189 22.7868
      vertex 0.00392914 4.16189 22.5806
    endloop
  endfacet
  facet normal -0.169911 -0.000141413 0.985459
    outer loop
      vertex 2.58996 -0.00476933 25.3715
      vertex 2.40684 4.16189 25.3405
      vertex 2.38809 -0.00476933 25.3367
    endloop
  endfacet
  facet normal -0.16327 0.000158787 0.986581
    outer loop
      vertex 2.58996 -0.00476933 25.3715
      vertex 2.61116 4.16189 25.3744
      vertex 2.40684 4.16189 25.3405
    endloop
  endfacet
  facet normal -0.16327 0 0.986581
    outer loop
      vertex 2.40684 12 25.3405
      vertex 2.61116 4.16189 25.3744
      vertex 2.61116 12 25.3744
    endloop
  endfacet
  facet normal -0.16327 0 0.986581
    outer loop
      vertex 2.61116 4.16189 25.3744
      vertex 2.40684 12 25.3405
      vertex 2.40684 4.16189 25.3405
    endloop
  endfacet
  facet normal -0.102236 -0.000157357 0.99476
    outer loop
      vertex 2.79373 -0.00476933 25.3925
      vertex 2.61116 4.16189 25.3744
      vertex 2.58996 -0.00476933 25.3715
    endloop
  endfacet
  facet normal -0.09479 0.000172103 0.995497
    outer loop
      vertex 2.79373 -0.00476933 25.3925
      vertex 2.81732 4.16189 25.394
      vertex 2.61116 4.16189 25.3744
    endloop
  endfacet
  facet normal -0.09479 0 0.995497
    outer loop
      vertex 2.61116 12 25.3744
      vertex 2.81732 4.16189 25.394
      vertex 2.81732 12 25.394
    endloop
  endfacet
  facet normal -0.09479 0 0.995497
    outer loop
      vertex 2.81732 4.16189 25.394
      vertex 2.61116 12 25.3744
      vertex 2.61116 4.16189 25.3744
    endloop
  endfacet
  facet normal -0.0301859 0 0.999544
    outer loop
      vertex 2.81732 4.16189 25.394
      vertex 2.99846 12 25.3995
      vertex 2.81732 12 25.394
    endloop
  endfacet
  facet normal -0.0301859 0 0.999544
    outer loop
      vertex 2.99846 12 25.3995
      vertex 2.81732 4.16189 25.394
      vertex 2.99846 -0.00476933 25.3995
    endloop
  endfacet
  facet normal -0.0341531 -0.000172636 0.999417
    outer loop
      vertex 2.99846 -0.00476933 25.3995
      vertex 2.81732 4.16189 25.394
      vertex 2.79373 -0.00476933 25.3925
    endloop
  endfacet
  facet normal -0.995494 0 0.0948265
    outer loop
      vertex 0.00392914 4.16189 22.5806
      vertex 0.0235672 12 22.7868
      vertex 0.00392914 12 22.5806
    endloop
  endfacet
  facet normal -0.995494 0 0.0948265
    outer loop
      vertex 0.0235672 12 22.7868
      vertex 0.00392914 4.16189 22.5806
      vertex 0.0235672 4.16189 22.7868
    endloop
  endfacet
  facet normal -0.986587 0 0.163234
    outer loop
      vertex 0.0235672 4.16189 22.7868
      vertex 0.057373 12 22.9911
      vertex 0.0235672 12 22.7868
    endloop
  endfacet
  facet normal -0.986587 0 0.163234
    outer loop
      vertex 0.057373 12 22.9911
      vertex 0.0235672 4.16189 22.7868
      vertex 0.057373 4.16189 22.9911
    endloop
  endfacet
  facet normal -0.972975 0 0.230912
    outer loop
      vertex 0.057373 4.16189 22.9911
      vertex 0.105194 12 23.1926
      vertex 0.057373 12 22.9911
    endloop
  endfacet
  facet normal -0.972975 0 0.230912
    outer loop
      vertex 0.105194 12 23.1926
      vertex 0.057373 4.16189 22.9911
      vertex 0.105194 4.16189 23.1926
    endloop
  endfacet
  facet normal -0.954715 0 0.297522
    outer loop
      vertex 0.105194 4.16189 23.1926
      vertex 0.166809 12 23.3903
      vertex 0.105194 12 23.1926
    endloop
  endfacet
  facet normal -0.954715 0 0.297522
    outer loop
      vertex 0.166809 12 23.3903
      vertex 0.105194 4.16189 23.1926
      vertex 0.166809 4.16189 23.3903
    endloop
  endfacet
  facet normal -0.931927 0 0.362647
    outer loop
      vertex 0.166809 4.16189 23.3903
      vertex 0.241913 12 23.5833
      vertex 0.166809 12 23.3903
    endloop
  endfacet
  facet normal -0.931927 0 0.362647
    outer loop
      vertex 0.241913 12 23.5833
      vertex 0.166809 4.16189 23.3903
      vertex 0.241913 4.16189 23.5833
    endloop
  endfacet
  facet normal -0.90468 0 0.426092
    outer loop
      vertex 0.241913 4.16189 23.5833
      vertex 0.330154 12 23.7706
      vertex 0.241913 12 23.5833
    endloop
  endfacet
  facet normal -0.90468 0 0.426092
    outer loop
      vertex 0.330154 12 23.7706
      vertex 0.241913 4.16189 23.5833
      vertex 0.330154 4.16189 23.7706
    endloop
  endfacet
  facet normal -0.873127 0 0.487494
    outer loop
      vertex 0.330154 4.16189 23.7706
      vertex 0.431114 12 23.9515
      vertex 0.330154 12 23.7706
    endloop
  endfacet
  facet normal -0.873127 0 0.487494
    outer loop
      vertex 0.431114 12 23.9515
      vertex 0.330154 4.16189 23.7706
      vertex 0.431114 4.16189 23.9515
    endloop
  endfacet
  facet normal -0.837401 0 0.546589
    outer loop
      vertex 0.431114 4.16189 23.9515
      vertex 0.544312 12 24.1249
      vertex 0.431114 12 23.9515
    endloop
  endfacet
  facet normal -0.837401 0 0.546589
    outer loop
      vertex 0.544312 12 24.1249
      vertex 0.431114 4.16189 23.9515
      vertex 0.544312 4.16189 24.1249
    endloop
  endfacet
  facet normal -0.797709 0 0.603043
    outer loop
      vertex 0.544312 4.16189 24.1249
      vertex 0.669197 12 24.2901
      vertex 0.544312 12 24.1249
    endloop
  endfacet
  facet normal -0.797709 0 0.603043
    outer loop
      vertex 0.669197 12 24.2901
      vertex 0.544312 4.16189 24.1249
      vertex 0.669197 4.16189 24.2901
    endloop
  endfacet
  facet normal -0.754089 0 0.656773
    outer loop
      vertex 0.669197 4.16189 24.2901
      vertex 0.805954 12 24.4471
      vertex 0.669197 12 24.2901
    endloop
  endfacet
  facet normal -0.754089 0 0.656773
    outer loop
      vertex 0.805954 12 24.4471
      vertex 0.669197 4.16189 24.2901
      vertex 0.805954 4.16189 24.4471
    endloop
  endfacet
  facet normal -0.656752 0 0.754107
    outer loop
      vertex 0.950798 12 24.592
      vertex 1.10782 4.16189 24.7287
      vertex 1.10782 12 24.7287
    endloop
  endfacet
  facet normal -0.656752 0 0.754107
    outer loop
      vertex 1.10782 4.16189 24.7287
      vertex 0.950798 12 24.592
      vertex 0.950798 4.16189 24.592
    endloop
  endfacet
  facet normal -0.603067 0 0.797691
    outer loop
      vertex 1.10782 12 24.7287
      vertex 1.27302 4.16189 24.8536
      vertex 1.27302 12 24.8536
    endloop
  endfacet
  facet normal -0.603067 0 0.797691
    outer loop
      vertex 1.27302 4.16189 24.8536
      vertex 1.10782 12 24.7287
      vertex 1.10782 4.16189 24.7287
    endloop
  endfacet
  facet normal -0.546546 0 0.837429
    outer loop
      vertex 1.27302 12 24.8536
      vertex 1.44645 4.16189 24.9668
      vertex 1.44645 12 24.9668
    endloop
  endfacet
  facet normal -0.546546 0 0.837429
    outer loop
      vertex 1.44645 4.16189 24.9668
      vertex 1.27302 12 24.8536
      vertex 1.27302 4.16189 24.8536
    endloop
  endfacet
  facet normal -0.487509 0 0.873118
    outer loop
      vertex 1.44645 12 24.9668
      vertex 1.62727 4.16189 25.0678
      vertex 1.62727 12 25.0678
    endloop
  endfacet
  facet normal -0.487509 0 0.873118
    outer loop
      vertex 1.62727 4.16189 25.0678
      vertex 1.44645 12 24.9668
      vertex 1.44645 4.16189 24.9668
    endloop
  endfacet
  facet normal -0.426092 0 0.90468
    outer loop
      vertex 1.62727 12 25.0678
      vertex 1.81462 4.16189 25.156
      vertex 1.81462 12 25.156
    endloop
  endfacet
  facet normal -0.426092 0 0.90468
    outer loop
      vertex 1.81462 4.16189 25.156
      vertex 1.62727 12 25.0678
      vertex 1.62727 4.16189 25.0678
    endloop
  endfacet
  facet normal -0.362647 0 0.931927
    outer loop
      vertex 1.81462 12 25.156
      vertex 2.00762 4.16189 25.2311
      vertex 2.00762 12 25.2311
    endloop
  endfacet
  facet normal -0.362647 0 0.931927
    outer loop
      vertex 2.00762 4.16189 25.2311
      vertex 1.81462 12 25.156
      vertex 1.81462 4.16189 25.156
    endloop
  endfacet
  facet normal -0.297511 0 0.954718
    outer loop
      vertex 2.00762 12 25.2311
      vertex 2.20535 4.16189 25.2927
      vertex 2.20535 12 25.2927
    endloop
  endfacet
  facet normal -0.297511 0 0.954718
    outer loop
      vertex 2.20535 4.16189 25.2927
      vertex 2.00762 12 25.2311
      vertex 2.00762 4.16189 25.2311
    endloop
  endfacet
  facet normal 0 1 -0
    outer loop
      vertex 3.48563 24.9952 -0.000537872
      vertex -0.00154114 24.9952 10
      vertex 3.48563 24.9952 10
    endloop
  endfacet
  facet normal 0 1 0
    outer loop
      vertex -0.00154114 24.9952 10
      vertex 3.48563 24.9952 -0.000537872
      vertex -0.00154114 24.9952 -0.000537872
    endloop
  endfacet
  facet normal -1 0 0
    outer loop
      vertex -0.00154114 24.9952 -0.000537872
      vertex -0.00154114 12 10
      vertex -0.00154114 24.9952 10
    endloop
  endfacet
  facet normal -1 0 0
    outer loop
      vertex -0.00154114 9.63812 12.8517
      vertex -0.00154114 12 10
      vertex -0.00154114 9.64516 12.6995
    endloop
  endfacet
  facet normal -1 0 0
    outer loop
      vertex -0.00154114 12 10
      vertex -0.00154114 9.63812 12.5472
      vertex -0.00154114 9.64516 12.6995
    endloop
  endfacet
  facet normal -1 0 0
    outer loop
      vertex -0.00154114 12 10
      vertex -0.00154114 9.61707 12.3963
      vertex -0.00154114 9.63812 12.5472
    endloop
  endfacet
  facet normal -1 0 0
    outer loop
      vertex -0.00154114 12 10
      vertex -0.00154114 9.58217 12.2479
      vertex -0.00154114 9.61707 12.3963
    endloop
  endfacet
  facet normal -1 0 0
    outer loop
      vertex -0.00154114 12 10
      vertex -0.00154114 9.53374 12.1034
      vertex -0.00154114 9.58217 12.2479
    endloop
  endfacet
  facet normal -1 0 0
    outer loop
      vertex -0.00154114 12 10
      vertex -0.00154114 9.47218 11.964
      vertex -0.00154114 9.53374 12.1034
    endloop
  endfacet
  facet normal -1 0 0
    outer loop
      vertex -0.00154114 12 10
      vertex -0.00154114 9.39802 11.8308
      vertex -0.00154114 9.47218 11.964
    endloop
  endfacet
  facet normal -1 0 0
    outer loop
      vertex -0.00154114 -0.00476933 -0.000537872
      vertex -0.00154114 12 10
      vertex -0.00154114 24.9952 -0.000537872
    endloop
  endfacet
  facet normal -1 0 0
    outer loop
      vertex -0.00154114 12 10
      vertex -0.00154114 9.31189 11.7051
      vertex -0.00154114 9.39802 11.8308
    endloop
  endfacet
  facet normal -1 0 0
    outer loop
      vertex -0.00154114 12 10
      vertex -0.00154114 9.21453 11.5879
      vertex -0.00154114 9.31189 11.7051
    endloop
  endfacet
  facet normal -1 0 0
    outer loop
      vertex -0.00154114 12 10
      vertex -0.00154114 9.10676 11.4801
      vertex -0.00154114 9.21453 11.5879
    endloop
  endfacet
  facet normal -1 0 0
    outer loop
      vertex -0.00154114 12 10
      vertex -0.00154114 8.98951 11.3827
      vertex -0.00154114 9.10676 11.4801
    endloop
  endfacet
  facet normal -1 0 0
    outer loop
      vertex -0.00154114 12 10
      vertex -0.00154114 8.86377 11.2966
      vertex -0.00154114 8.98951 11.3827
    endloop
  endfacet
  facet normal -1 0 0
    outer loop
      vertex -0.00154114 12 10
      vertex -0.00154114 8.73063 11.2224
      vertex -0.00154114 8.86377 11.2966
    endloop
  endfacet
  facet normal -1 0 0
    outer loop
      vertex -0.00154114 12 10
      vertex -0.00154114 8.59121 11.1609
      vertex -0.00154114 8.73063 11.2224
    endloop
  endfacet
  facet normal -1 0 0
    outer loop
      vertex -0.00154114 12 10
      vertex -0.00154114 8.44671 11.1124
      vertex -0.00154114 8.59121 11.1609
    endloop
  endfacet
  facet normal -1 0 -0
    outer loop
      vertex -0.00154114 7.99516 11.0495
      vertex -0.00154114 12 10
      vertex -0.00154114 -0.00476933 -0.000537872
    endloop
  endfacet
  facet normal -1 0 0
    outer loop
      vertex -0.00154114 12 10
      vertex -0.00154114 8.29835 11.0776
      vertex -0.00154114 8.44671 11.1124
    endloop
  endfacet
  facet normal -1 0 0
    outer loop
      vertex -0.00154114 12 10
      vertex -0.00154114 8.1474 11.0565
      vertex -0.00154114 8.29835 11.0776
    endloop
  endfacet
  facet normal -1 0 0
    outer loop
      vertex -0.00154114 12 10
      vertex -0.00154114 7.99516 11.0495
      vertex -0.00154114 8.1474 11.0565
    endloop
  endfacet
  facet normal -1 -0 0
    outer loop
      vertex -0.00154114 7.99516 11.0495
      vertex -0.00154114 -0.00476933 -0.000537872
      vertex -0.00154114 7.84292 11.0565
    endloop
  endfacet
  facet normal -1 -0 0
    outer loop
      vertex -0.00154114 7.84292 11.0565
      vertex -0.00154114 -0.00476933 -0.000537872
      vertex -0.00154114 7.69197 11.0776
    endloop
  endfacet
  facet normal -1 -0 0
    outer loop
      vertex -0.00154114 7.69197 11.0776
      vertex -0.00154114 -0.00476933 -0.000537872
      vertex -0.00154114 7.54362 11.1124
    endloop
  endfacet
  facet normal -1 -0 0
    outer loop
      vertex -0.00154114 7.54362 11.1124
      vertex -0.00154114 -0.00476933 -0.000537872
      vertex -0.00154114 7.39911 11.1609
    endloop
  endfacet
  facet normal -1 -0 0
    outer loop
      vertex -0.00154114 7.39911 11.1609
      vertex -0.00154114 -0.00476933 -0.000537872
      vertex -0.00154114 7.25969 11.2224
    endloop
  endfacet
  facet normal -1 0 0
    outer loop
      vertex -0.00154114 -0.00476933 22.3995
      vertex -0.00154114 6.3522 12.5472
      vertex -0.00154114 -0.00476933 -0.000537872
    endloop
  endfacet
  facet normal -1 -0 0
    outer loop
      vertex -0.00154114 6.37326 12.3963
      vertex -0.00154114 -0.00476933 -0.000537872
      vertex -0.00154114 6.3522 12.5472
    endloop
  endfacet
  facet normal -1 -0 0
    outer loop
      vertex -0.00154114 6.40815 12.2479
      vertex -0.00154114 -0.00476933 -0.000537872
      vertex -0.00154114 6.37326 12.3963
    endloop
  endfacet
  facet normal -1 -0 0
    outer loop
      vertex -0.00154114 6.45658 12.1034
      vertex -0.00154114 -0.00476933 -0.000537872
      vertex -0.00154114 6.40815 12.2479
    endloop
  endfacet
  facet normal -1 -0 0
    outer loop
      vertex -0.00154114 6.51814 11.964
      vertex -0.00154114 -0.00476933 -0.000537872
      vertex -0.00154114 6.45658 12.1034
    endloop
  endfacet
  facet normal -1 -0 0
    outer loop
      vertex -0.00154114 6.5923 11.8308
      vertex -0.00154114 -0.00476933 -0.000537872
      vertex -0.00154114 6.51814 11.964
    endloop
  endfacet
  facet normal -1 -0 0
    outer loop
      vertex -0.00154114 6.67843 11.7051
      vertex -0.00154114 -0.00476933 -0.000537872
      vertex -0.00154114 6.5923 11.8308
    endloop
  endfacet
  facet normal -1 -0 0
    outer loop
      vertex -0.00154114 6.7758 11.5879
      vertex -0.00154114 -0.00476933 -0.000537872
      vertex -0.00154114 6.67843 11.7051
    endloop
  endfacet
  facet normal -1 -0 0
    outer loop
      vertex -0.00154114 6.88356 11.4801
      vertex -0.00154114 -0.00476933 -0.000537872
      vertex -0.00154114 6.7758 11.5879
    endloop
  endfacet
  facet normal -1 -0 0
    outer loop
      vertex -0.00154114 7.00081 11.3827
      vertex -0.00154114 -0.00476933 -0.000537872
      vertex -0.00154114 6.88356 11.4801
    endloop
  endfacet
  facet normal -1 -0 0
    outer loop
      vertex -0.00154114 7.12655 11.2966
      vertex -0.00154114 -0.00476933 -0.000537872
      vertex -0.00154114 7.00081 11.3827
    endloop
  endfacet
  facet normal -1 -0 0
    outer loop
      vertex -0.00154114 7.25969 11.2224
      vertex -0.00154114 -0.00476933 -0.000537872
      vertex -0.00154114 7.12655 11.2966
    endloop
  endfacet
  facet normal -1 0 0
    outer loop
      vertex -0.00154114 9.61707 13.0026
      vertex -0.00154114 12 10
      vertex -0.00154114 9.63812 12.8517
    endloop
  endfacet
  facet normal -1 0 0
    outer loop
      vertex -0.00154114 9.58217 13.151
      vertex -0.00154114 12 10
      vertex -0.00154114 9.61707 13.0026
    endloop
  endfacet
  facet normal -1 0 0
    outer loop
      vertex -0.00154114 9.53374 13.2955
      vertex -0.00154114 12 10
      vertex -0.00154114 9.58217 13.151
    endloop
  endfacet
  facet normal -1 0 0
    outer loop
      vertex -0.00154114 12 10
      vertex -0.00154114 9.53374 13.2955
      vertex -0.00154114 12 22.3995
    endloop
  endfacet
  facet normal -1 0 0
    outer loop
      vertex -0.00154114 9.47218 13.4349
      vertex -0.00154114 12 22.3995
      vertex -0.00154114 9.53374 13.2955
    endloop
  endfacet
  facet normal -1 0 0
    outer loop
      vertex -0.00154114 9.39802 13.5681
      vertex -0.00154114 12 22.3995
      vertex -0.00154114 9.47218 13.4349
    endloop
  endfacet
  facet normal -1 0 0
    outer loop
      vertex -0.00154114 9.31189 13.6938
      vertex -0.00154114 12 22.3995
      vertex -0.00154114 9.39802 13.5681
    endloop
  endfacet
  facet normal -1 0 0
    outer loop
      vertex -0.00154114 9.21453 13.8111
      vertex -0.00154114 12 22.3995
      vertex -0.00154114 9.31189 13.6938
    endloop
  endfacet
  facet normal -1 0 0
    outer loop
      vertex -0.00154114 9.10676 13.9188
      vertex -0.00154114 12 22.3995
      vertex -0.00154114 9.21453 13.8111
    endloop
  endfacet
  facet normal -1 0 0
    outer loop
      vertex -0.00154114 8.98951 14.0162
      vertex -0.00154114 12 22.3995
      vertex -0.00154114 9.10676 13.9188
    endloop
  endfacet
  facet normal -1 0 0
    outer loop
      vertex -0.00154114 8.86377 14.1023
      vertex -0.00154114 12 22.3995
      vertex -0.00154114 8.98951 14.0162
    endloop
  endfacet
  facet normal -1 0 0
    outer loop
      vertex -0.00154114 8.73063 14.1765
      vertex -0.00154114 12 22.3995
      vertex -0.00154114 8.86377 14.1023
    endloop
  endfacet
  facet normal -1 0 0
    outer loop
      vertex -0.00154114 8.59121 14.238
      vertex -0.00154114 12 22.3995
      vertex -0.00154114 8.73063 14.1765
    endloop
  endfacet
  facet normal -1 0 0
    outer loop
      vertex -0.00154114 8.44671 14.2865
      vertex -0.00154114 12 22.3995
      vertex -0.00154114 8.59121 14.238
    endloop
  endfacet
  facet normal -1 0 0
    outer loop
      vertex -0.00154114 8.29835 14.3214
      vertex -0.00154114 12 22.3995
      vertex -0.00154114 8.44671 14.2865
    endloop
  endfacet
  facet normal -1 0 0
    outer loop
      vertex -0.00154114 8.1474 14.3424
      vertex -0.00154114 12 22.3995
      vertex -0.00154114 8.29835 14.3214
    endloop
  endfacet
  facet normal -1 0 0
    outer loop
      vertex -0.00154114 7.99516 14.3495
      vertex -0.00154114 12 22.3995
      vertex -0.00154114 8.1474 14.3424
    endloop
  endfacet
  facet normal -1 0 0
    outer loop
      vertex -0.00154114 7.84292 14.3424
      vertex -0.00154114 12 22.3995
      vertex -0.00154114 7.99516 14.3495
    endloop
  endfacet
  facet normal -1 0 0
    outer loop
      vertex -0.00154114 7.69197 14.3214
      vertex -0.00154114 12 22.3995
      vertex -0.00154114 7.84292 14.3424
    endloop
  endfacet
  facet normal -1 0 0
    outer loop
      vertex -0.00154114 7.54362 14.2865
      vertex -0.00154114 12 22.3995
      vertex -0.00154114 7.69197 14.3214
    endloop
  endfacet
  facet normal -1 0 0
    outer loop
      vertex -0.00154114 -0.00476933 22.3995
      vertex -0.00154114 7.54362 14.2865
      vertex -0.00154114 7.39911 14.238
    endloop
  endfacet
  facet normal -1 0 0
    outer loop
      vertex -0.00154114 -0.00476933 22.3995
      vertex -0.00154114 7.39911 14.238
      vertex -0.00154114 7.25969 14.1765
    endloop
  endfacet
  facet normal -1 0 0
    outer loop
      vertex -0.00154114 -0.00476933 22.3995
      vertex -0.00154114 7.25969 14.1765
      vertex -0.00154114 7.12655 14.1023
    endloop
  endfacet
  facet normal -1 0 0
    outer loop
      vertex -0.00154114 -0.00476933 22.3995
      vertex -0.00154114 7.12655 14.1023
      vertex -0.00154114 7.00081 14.0162
    endloop
  endfacet
  facet normal -1 0 0
    outer loop
      vertex -0.00154114 -0.00476933 22.3995
      vertex -0.00154114 7.00081 14.0162
      vertex -0.00154114 6.88356 13.9188
    endloop
  endfacet
  facet normal -1 0 0
    outer loop
      vertex -0.00154114 -0.00476933 22.3995
      vertex -0.00154114 6.88356 13.9188
      vertex -0.00154114 6.7758 13.8111
    endloop
  endfacet
  facet normal -1 0 0
    outer loop
      vertex -0.00154114 -0.00476933 22.3995
      vertex -0.00154114 6.7758 13.8111
      vertex -0.00154114 6.67843 13.6938
    endloop
  endfacet
  facet normal -1 0 0
    outer loop
      vertex -0.00154114 -0.00476933 22.3995
      vertex -0.00154114 6.67843 13.6938
      vertex -0.00154114 6.5923 13.5681
    endloop
  endfacet
  facet normal -1 0 0
    outer loop
      vertex -0.00154114 6.3522 12.5472
      vertex -0.00154114 -0.00476933 22.3995
      vertex -0.00154114 6.34516 12.6995
    endloop
  endfacet
  facet normal -1 0 0
    outer loop
      vertex -0.00154114 6.34516 12.6995
      vertex -0.00154114 -0.00476933 22.3995
      vertex -0.00154114 6.3522 12.8517
    endloop
  endfacet
  facet normal -1 0 0
    outer loop
      vertex -0.00154114 6.3522 12.8517
      vertex -0.00154114 -0.00476933 22.3995
      vertex -0.00154114 6.37326 13.0026
    endloop
  endfacet
  facet normal -1 0 0
    outer loop
      vertex -0.00154114 6.37326 13.0026
      vertex -0.00154114 -0.00476933 22.3995
      vertex -0.00154114 6.40815 13.151
    endloop
  endfacet
  facet normal -1 0 0
    outer loop
      vertex -0.00154114 6.40815 13.151
      vertex -0.00154114 -0.00476933 22.3995
      vertex -0.00154114 6.45658 13.2955
    endloop
  endfacet
  facet normal -1 0 0
    outer loop
      vertex -0.00154114 7.54362 14.2865
      vertex -0.00154114 -0.00476933 22.3995
      vertex -0.00154114 12 22.3995
    endloop
  endfacet
  facet normal -1 0 0
    outer loop
      vertex -0.00154114 6.51814 13.4349
      vertex -0.00154114 -0.00476933 22.3995
      vertex -0.00154114 6.5923 13.5681
    endloop
  endfacet
  facet normal -1 0 0
    outer loop
      vertex -0.00154114 6.45658 13.2955
      vertex -0.00154114 -0.00476933 22.3995
      vertex -0.00154114 6.51814 13.4349
    endloop
  endfacet
  facet normal 0.686793 0.726854 -0
    outer loop
      vertex 4.44675 24.087 -0.000537872
      vertex 3.48563 24.9952 10
      vertex 4.44675 24.087 10
    endloop
  endfacet
  facet normal 0.686793 0.726854 0
    outer loop
      vertex 3.48563 24.9952 10
      vertex 4.44675 24.087 -0.000537872
      vertex 3.48563 24.9952 -0.000537872
    endloop
  endfacet
  facet normal 1 -0 0
    outer loop
      vertex 3.48563 9.47218 13.4349
      vertex 3.48563 12 10
      vertex 3.48563 12 25.3995
    endloop
  endfacet
  facet normal 1 0 0
    outer loop
      vertex 3.48563 12 10
      vertex 3.48563 9.63812 12.8517
      vertex 3.48563 9.64516 12.6995
    endloop
  endfacet
  facet normal 1 0 0
    outer loop
      vertex 3.48563 12 10
      vertex 3.48563 9.61707 13.0026
      vertex 3.48563 9.63812 12.8517
    endloop
  endfacet
  facet normal 1 0 0
    outer loop
      vertex 3.48563 12 10
      vertex 3.48563 9.58217 13.151
      vertex 3.48563 9.61707 13.0026
    endloop
  endfacet
  facet normal 1 0 0
    outer loop
      vertex 3.48563 12 10
      vertex 3.48563 9.53374 13.2955
      vertex 3.48563 9.58217 13.151
    endloop
  endfacet
  facet normal 1 0 0
    outer loop
      vertex 3.48563 12 10
      vertex 3.48563 9.47218 13.4349
      vertex 3.48563 9.53374 13.2955
    endloop
  endfacet
  facet normal 1 0 0
    outer loop
      vertex 3.48563 12 25.3995
      vertex 3.48563 9.39802 13.5681
      vertex 3.48563 9.47218 13.4349
    endloop
  endfacet
  facet normal 1 0 0
    outer loop
      vertex 3.48563 12 25.3995
      vertex 3.48563 9.31189 13.6938
      vertex 3.48563 9.39802 13.5681
    endloop
  endfacet
  facet normal 1 0 0
    outer loop
      vertex 3.48563 12 25.3995
      vertex 3.48563 9.21453 13.8111
      vertex 3.48563 9.31189 13.6938
    endloop
  endfacet
  facet normal 1 0 0
    outer loop
      vertex 3.48563 12 25.3995
      vertex 3.48563 9.10676 13.9188
      vertex 3.48563 9.21453 13.8111
    endloop
  endfacet
  facet normal 1 0 0
    outer loop
      vertex 3.48563 12 25.3995
      vertex 3.48563 8.98951 14.0162
      vertex 3.48563 9.10676 13.9188
    endloop
  endfacet
  facet normal 1 0 0
    outer loop
      vertex 3.48563 12 25.3995
      vertex 3.48563 8.86378 14.1023
      vertex 3.48563 8.98951 14.0162
    endloop
  endfacet
  facet normal 1 0 0
    outer loop
      vertex 3.48563 12 25.3995
      vertex 3.48563 8.73063 14.1765
      vertex 3.48563 8.86378 14.1023
    endloop
  endfacet
  facet normal 1 0 0
    outer loop
      vertex 3.48563 12 25.3995
      vertex 3.48563 8.59121 14.238
      vertex 3.48563 8.73063 14.1765
    endloop
  endfacet
  facet normal 1 0 0
    outer loop
      vertex 3.48563 12 25.3995
      vertex 3.48563 8.44671 14.2865
      vertex 3.48563 8.59121 14.238
    endloop
  endfacet
  facet normal 1 0 0
    outer loop
      vertex 3.48563 12 25.3995
      vertex 3.48563 8.29835 14.3214
      vertex 3.48563 8.44671 14.2865
    endloop
  endfacet
  facet normal 1 0 0
    outer loop
      vertex 3.48563 12 25.3995
      vertex 3.48563 8.1474 14.3424
      vertex 3.48563 8.29835 14.3214
    endloop
  endfacet
  facet normal 1 0 0
    outer loop
      vertex 3.48563 12 25.3995
      vertex 3.48563 7.99516 14.3495
      vertex 3.48563 8.1474 14.3424
    endloop
  endfacet
  facet normal 1 0 0
    outer loop
      vertex 3.48563 12 25.3995
      vertex 3.48563 7.84292 14.3424
      vertex 3.48563 7.99516 14.3495
    endloop
  endfacet
  facet normal 1 0 0
    outer loop
      vertex 3.48563 12 25.3995
      vertex 3.48563 7.69197 14.3214
      vertex 3.48563 7.84292 14.3424
    endloop
  endfacet
  facet normal 1 0 0
    outer loop
      vertex 3.48563 12 25.3995
      vertex 3.48563 7.54362 14.2865
      vertex 3.48563 7.69197 14.3214
    endloop
  endfacet
  facet normal 1 -0 0
    outer loop
      vertex 3.48563 -0.00476933 25.3995
      vertex 3.48563 7.54362 14.2865
      vertex 3.48563 12 25.3995
    endloop
  endfacet
  facet normal 1 0 0
    outer loop
      vertex 3.48563 7.54362 14.2865
      vertex 3.48563 -0.00476933 25.3995
      vertex 3.48563 7.39911 14.238
    endloop
  endfacet
  facet normal 1 0 0
    outer loop
      vertex 3.48563 7.39911 14.238
      vertex 3.48563 -0.00476933 25.3995
      vertex 3.48563 7.25969 14.1765
    endloop
  endfacet
  facet normal 1 0 0
    outer loop
      vertex 3.48563 7.25969 14.1765
      vertex 3.48563 -0.00476933 25.3995
      vertex 3.48563 7.12655 14.1023
    endloop
  endfacet
  facet normal 1 0 0
    outer loop
      vertex 3.48563 7.12655 14.1023
      vertex 3.48563 -0.00476933 25.3995
      vertex 3.48563 7.00081 14.0162
    endloop
  endfacet
  facet normal 1 0 0
    outer loop
      vertex 3.48563 7.00081 14.0162
      vertex 3.48563 -0.00476933 25.3995
      vertex 3.48563 6.88356 13.9188
    endloop
  endfacet
  facet normal 1 0 0
    outer loop
      vertex 3.48563 6.88356 13.9188
      vertex 3.48563 -0.00476933 25.3995
      vertex 3.48563 6.7758 13.8111
    endloop
  endfacet
  facet normal 1 0 0
    outer loop
      vertex 3.48563 6.7758 13.8111
      vertex 3.48563 -0.00476933 25.3995
      vertex 3.48563 6.67843 13.6938
    endloop
  endfacet
  facet normal 1 0 0
    outer loop
      vertex 3.48563 6.67843 13.6938
      vertex 3.48563 -0.00476933 25.3995
      vertex 3.48563 6.5923 13.5681
    endloop
  endfacet
  facet normal 1 0 0
    outer loop
      vertex 3.48563 6.3522 12.8517
      vertex 3.48563 -0.00476933 25.3995
      vertex 3.48563 6.34516 12.6995
    endloop
  endfacet
  facet normal 1 0 0
    outer loop
      vertex 3.48563 6.37326 13.0026
      vertex 3.48563 -0.00476933 25.3995
      vertex 3.48563 6.3522 12.8517
    endloop
  endfacet
  facet normal 1 0 0
    outer loop
      vertex 3.48563 6.40815 13.151
      vertex 3.48563 -0.00476933 25.3995
      vertex 3.48563 6.37326 13.0026
    endloop
  endfacet
  facet normal 1 0 0
    outer loop
      vertex 3.48563 6.45658 13.2955
      vertex 3.48563 -0.00476933 25.3995
      vertex 3.48563 6.40815 13.151
    endloop
  endfacet
  facet normal 1 0 0
    outer loop
      vertex 3.48563 6.51814 13.4349
      vertex 3.48563 -0.00476933 25.3995
      vertex 3.48563 6.45658 13.2955
    endloop
  endfacet
  facet normal 1 0 0
    outer loop
      vertex 3.48563 6.5923 13.5681
      vertex 3.48563 -0.00476933 25.3995
      vertex 3.48563 6.51814 13.4349
    endloop
  endfacet
  facet normal 1 -0 0
    outer loop
      vertex 3.48563 12 10
      vertex 3.48563 18.9952 -0.000537872
      vertex 3.48563 18.9952 10
    endloop
  endfacet
  facet normal 1 -0 0
    outer loop
      vertex 3.48563 9.63812 12.5472
      vertex 3.48563 12 10
      vertex 3.48563 9.64516 12.6995
    endloop
  endfacet
  facet normal 1 -0 0
    outer loop
      vertex 3.48563 9.61707 12.3963
      vertex 3.48563 12 10
      vertex 3.48563 9.63812 12.5472
    endloop
  endfacet
  facet normal 1 -0 0
    outer loop
      vertex 3.48563 9.58217 12.2479
      vertex 3.48563 12 10
      vertex 3.48563 9.61707 12.3963
    endloop
  endfacet
  facet normal 1 -0 0
    outer loop
      vertex 3.48563 9.53374 12.1034
      vertex 3.48563 12 10
      vertex 3.48563 9.58217 12.2479
    endloop
  endfacet
  facet normal 1 -0 0
    outer loop
      vertex 3.48563 9.47218 11.964
      vertex 3.48563 12 10
      vertex 3.48563 9.53374 12.1034
    endloop
  endfacet
  facet normal 1 -0 0
    outer loop
      vertex 3.48563 9.39802 11.8308
      vertex 3.48563 12 10
      vertex 3.48563 9.47218 11.964
    endloop
  endfacet
  facet normal 1 -0 0
    outer loop
      vertex 3.48563 9.31189 11.7051
      vertex 3.48563 12 10
      vertex 3.48563 9.39802 11.8308
    endloop
  endfacet
  facet normal 1 -0 0
    outer loop
      vertex 3.48563 9.21453 11.5879
      vertex 3.48563 12 10
      vertex 3.48563 9.31189 11.7051
    endloop
  endfacet
  facet normal 1 -0 0
    outer loop
      vertex 3.48563 9.10676 11.4801
      vertex 3.48563 12 10
      vertex 3.48563 9.21453 11.5879
    endloop
  endfacet
  facet normal 1 -0 0
    outer loop
      vertex 3.48563 8.98951 11.3827
      vertex 3.48563 12 10
      vertex 3.48563 9.10676 11.4801
    endloop
  endfacet
  facet normal 1 -0 0
    outer loop
      vertex 3.48563 8.86378 11.2966
      vertex 3.48563 12 10
      vertex 3.48563 8.98951 11.3827
    endloop
  endfacet
  facet normal 1 -0 0
    outer loop
      vertex 3.48563 8.73063 11.2224
      vertex 3.48563 12 10
      vertex 3.48563 8.86378 11.2966
    endloop
  endfacet
  facet normal 1 -0 0
    outer loop
      vertex 3.48563 8.59121 11.1609
      vertex 3.48563 12 10
      vertex 3.48563 8.73063 11.2224
    endloop
  endfacet
  facet normal 1 -0 0
    outer loop
      vertex 3.48563 8.44671 11.1124
      vertex 3.48563 12 10
      vertex 3.48563 8.59121 11.1609
    endloop
  endfacet
  facet normal 1 -0 0
    outer loop
      vertex 3.48563 8.29835 11.0776
      vertex 3.48563 12 10
      vertex 3.48563 8.44671 11.1124
    endloop
  endfacet
  facet normal 1 -0 0
    outer loop
      vertex 3.48563 8.1474 11.0565
      vertex 3.48563 12 10
      vertex 3.48563 8.29835 11.0776
    endloop
  endfacet
  facet normal 1 -0 0
    outer loop
      vertex 3.48563 7.99516 11.0495
      vertex 3.48563 12 10
      vertex 3.48563 8.1474 11.0565
    endloop
  endfacet
  facet normal 1 0 0
    outer loop
      vertex 3.48563 12 10
      vertex 3.48563 7.99516 11.0495
      vertex 3.48563 -0.00476933 -0.000537872
    endloop
  endfacet
  facet normal 1 0 0
    outer loop
      vertex 3.48563 -0.00476933 -0.000537872
      vertex 3.48563 7.99516 11.0495
      vertex 3.48563 7.84292 11.0565
    endloop
  endfacet
  facet normal 1 0 0
    outer loop
      vertex 3.48563 -0.00476933 -0.000537872
      vertex 3.48563 7.84292 11.0565
      vertex 3.48563 7.69197 11.0776
    endloop
  endfacet
  facet normal 1 0 0
    outer loop
      vertex 3.48563 -0.00476933 -0.000537872
      vertex 3.48563 7.69197 11.0776
      vertex 3.48563 7.54362 11.1124
    endloop
  endfacet
  facet normal 1 0 0
    outer loop
      vertex 3.48563 -0.00476933 -0.000537872
      vertex 3.48563 7.54362 11.1124
      vertex 3.48563 7.39911 11.1609
    endloop
  endfacet
  facet normal 1 0 0
    outer loop
      vertex 3.48563 -0.00476933 -0.000537872
      vertex 3.48563 7.39911 11.1609
      vertex 3.48563 7.25969 11.2224
    endloop
  endfacet
  facet normal 1 0 0
    outer loop
      vertex 3.48563 -0.00476933 -0.000537872
      vertex 3.48563 7.25969 11.2224
      vertex 3.48563 7.12655 11.2966
    endloop
  endfacet
  facet normal 1 0 0
    outer loop
      vertex 3.48563 -0.00476933 -0.000537872
      vertex 3.48563 7.12655 11.2966
      vertex 3.48563 7.00081 11.3827
    endloop
  endfacet
  facet normal 1 0 0
    outer loop
      vertex 3.48563 -0.00476933 -0.000537872
      vertex 3.48563 7.00081 11.3827
      vertex 3.48563 6.88356 11.4801
    endloop
  endfacet
  facet normal 1 0 0
    outer loop
      vertex 3.48563 -0.00476933 -0.000537872
      vertex 3.48563 6.34516 12.6995
      vertex 3.48563 -0.00476933 25.3995
    endloop
  endfacet
  facet normal 1 0 0
    outer loop
      vertex 3.48563 6.34516 12.6995
      vertex 3.48563 -0.00476933 -0.000537872
      vertex 3.48563 6.3522 12.5472
    endloop
  endfacet
  facet normal 1 0 0
    outer loop
      vertex 3.48563 6.3522 12.5472
      vertex 3.48563 -0.00476933 -0.000537872
      vertex 3.48563 6.37326 12.3963
    endloop
  endfacet
  facet normal 1 0 0
    outer loop
      vertex 3.48563 6.37326 12.3963
      vertex 3.48563 -0.00476933 -0.000537872
      vertex 3.48563 6.40815 12.2479
    endloop
  endfacet
  facet normal 1 0 0
    outer loop
      vertex 3.48563 6.40815 12.2479
      vertex 3.48563 -0.00476933 -0.000537872
      vertex 3.48563 6.45658 12.1034
    endloop
  endfacet
  facet normal 1 0 0
    outer loop
      vertex 3.48563 12 10
      vertex 3.48563 -0.00476933 -0.000537872
      vertex 3.48563 18.9952 -0.000537872
    endloop
  endfacet
  facet normal 1 0 0
    outer loop
      vertex 3.48563 6.7758 11.5879
      vertex 3.48563 -0.00476933 -0.000537872
      vertex 3.48563 6.88356 11.4801
    endloop
  endfacet
  facet normal 1 0 0
    outer loop
      vertex 3.48563 6.67843 11.7051
      vertex 3.48563 -0.00476933 -0.000537872
      vertex 3.48563 6.7758 11.5879
    endloop
  endfacet
  facet normal 1 0 0
    outer loop
      vertex 3.48563 6.5923 11.8308
      vertex 3.48563 -0.00476933 -0.000537872
      vertex 3.48563 6.67843 11.7051
    endloop
  endfacet
  facet normal 1 0 0
    outer loop
      vertex 3.48563 6.51814 11.964
      vertex 3.48563 -0.00476933 -0.000537872
      vertex 3.48563 6.5923 11.8308
    endloop
  endfacet
  facet normal 1 0 0
    outer loop
      vertex 3.48563 6.45658 12.1034
      vertex 3.48563 -0.00476933 -0.000537872
      vertex 3.48563 6.51814 11.964
    endloop
  endfacet
  facet normal 0 0.998933 -0.0461859
    outer loop
      vertex 3.48563 6.34516 12.6995
      vertex -0.00154114 6.3522 12.8517
      vertex 3.48563 6.3522 12.8517
    endloop
  endfacet
  facet normal 0 0.998933 -0.0461859
    outer loop
      vertex -0.00154114 6.3522 12.8517
      vertex 3.48563 6.34516 12.6995
      vertex -0.00154114 6.34516 12.6995
    endloop
  endfacet
  facet normal 0 0.998933 0.0461871
    outer loop
      vertex 3.48563 6.3522 12.5472
      vertex -0.00154114 6.34516 12.6995
      vertex 3.48563 6.34516 12.6995
    endloop
  endfacet
  facet normal 0 0.998933 0.0461871
    outer loop
      vertex -0.00154114 6.34516 12.6995
      vertex 3.48563 6.3522 12.5472
      vertex -0.00154114 6.3522 12.5472
    endloop
  endfacet
  facet normal 0 0.990411 0.138153
    outer loop
      vertex 3.48563 6.37326 12.3963
      vertex -0.00154114 6.3522 12.5472
      vertex 3.48563 6.3522 12.5472
    endloop
  endfacet
  facet normal 0 0.990411 0.138153
    outer loop
      vertex -0.00154114 6.3522 12.5472
      vertex 3.48563 6.37326 12.3963
      vertex -0.00154114 6.37326 12.3963
    endloop
  endfacet
  facet normal 0 0.973437 0.228955
    outer loop
      vertex 3.48563 6.40815 12.2479
      vertex -0.00154114 6.37326 12.3963
      vertex 3.48563 6.37326 12.3963
    endloop
  endfacet
  facet normal 0 0.973437 0.228955
    outer loop
      vertex -0.00154114 6.37326 12.3963
      vertex 3.48563 6.40815 12.2479
      vertex -0.00154114 6.40815 12.2479
    endloop
  endfacet
  facet normal 0 0.948162 0.317787
    outer loop
      vertex 3.48563 6.40815 12.2479
      vertex -0.00154114 6.45658 12.1034
      vertex -0.00154114 6.40815 12.2479
    endloop
  endfacet
  facet normal -2.59303e-07 0.94816 0.317793
    outer loop
      vertex 3.48563 6.40815 12.2479
      vertex 3.48563 6.45658 12.1034
      vertex -0.00154114 6.45658 12.1034
    endloop
  endfacet
  facet normal -2.50178e-07 0.914794 0.403921
    outer loop
      vertex 3.48563 6.51814 11.964
      vertex -0.00154114 6.45658 12.1034
      vertex 3.48563 6.45658 12.1034
    endloop
  endfacet
  facet normal -2.50178e-07 0.914794 0.403921
    outer loop
      vertex -0.00154114 6.45658 12.1034
      vertex 3.48563 6.51814 11.964
      vertex -0.00154114 6.51814 11.964
    endloop
  endfacet
  facet normal -2.38918e-07 0.873621 0.486607
    outer loop
      vertex 3.48563 6.51814 11.964
      vertex -0.00154114 6.5923 11.8308
      vertex -0.00154114 6.51814 11.964
    endloop
  endfacet
  facet normal 0 0.873623 0.486603
    outer loop
      vertex 3.48563 6.51814 11.964
      vertex 3.48563 6.5923 11.8308
      vertex -0.00154114 6.5923 11.8308
    endloop
  endfacet
  facet normal 0 0.825001 0.565131
    outer loop
      vertex 3.48563 6.67843 11.7051
      vertex -0.00154114 6.5923 11.8308
      vertex 3.48563 6.5923 11.8308
    endloop
  endfacet
  facet normal 0 0.825001 0.565131
    outer loop
      vertex -0.00154114 6.5923 11.8308
      vertex 3.48563 6.67843 11.7051
      vertex -0.00154114 6.67843 11.7051
    endloop
  endfacet
  facet normal 0 0.769329 0.638853
    outer loop
      vertex 3.48563 6.7758 11.5879
      vertex -0.00154114 6.67843 11.7051
      vertex 3.48563 6.67843 11.7051
    endloop
  endfacet
  facet normal 0 0.769329 0.638853
    outer loop
      vertex -0.00154114 6.67843 11.7051
      vertex 3.48563 6.7758 11.5879
      vertex -0.00154114 6.7758 11.5879
    endloop
  endfacet
  facet normal 0 0.707113 0.707101
    outer loop
      vertex 3.48563 6.88356 11.4801
      vertex -0.00154114 6.7758 11.5879
      vertex 3.48563 6.7758 11.5879
    endloop
  endfacet
  facet normal 0 0.707113 0.707101
    outer loop
      vertex -0.00154114 6.7758 11.5879
      vertex 3.48563 6.88356 11.4801
      vertex -0.00154114 6.88356 11.4801
    endloop
  endfacet
  facet normal -0 0.638843 0.769337
    outer loop
      vertex -0.00154114 7.00081 11.3827
      vertex 3.48563 6.88356 11.4801
      vertex 3.48563 7.00081 11.3827
    endloop
  endfacet
  facet normal 0 0.638843 0.769337
    outer loop
      vertex 3.48563 6.88356 11.4801
      vertex -0.00154114 7.00081 11.3827
      vertex -0.00154114 6.88356 11.4801
    endloop
  endfacet
  facet normal -0 0.565128 0.825003
    outer loop
      vertex -0.00154114 7.12655 11.2966
      vertex 3.48563 7.00081 11.3827
      vertex 3.48563 7.12655 11.2966
    endloop
  endfacet
  facet normal 0 0.565128 0.825003
    outer loop
      vertex 3.48563 7.00081 11.3827
      vertex -0.00154114 7.12655 11.2966
      vertex -0.00154114 7.00081 11.3827
    endloop
  endfacet
  facet normal -0 0.486607 0.873621
    outer loop
      vertex -0.00154114 7.25969 11.2224
      vertex 3.48563 7.12655 11.2966
      vertex 3.48563 7.25969 11.2224
    endloop
  endfacet
  facet normal 0 0.486607 0.873621
    outer loop
      vertex 3.48563 7.12655 11.2966
      vertex -0.00154114 7.25969 11.2224
      vertex -0.00154114 7.12655 11.2966
    endloop
  endfacet
  facet normal -0 0.403931 0.914789
    outer loop
      vertex -0.00154114 7.39911 11.1609
      vertex 3.48563 7.25969 11.2224
      vertex 3.48563 7.39911 11.1609
    endloop
  endfacet
  facet normal 0 0.403931 0.914789
    outer loop
      vertex 3.48563 7.25969 11.2224
      vertex -0.00154114 7.39911 11.1609
      vertex -0.00154114 7.25969 11.2224
    endloop
  endfacet
  facet normal 0 0.317782 0.948164
    outer loop
      vertex 3.48563 7.39911 11.1609
      vertex -0.00154114 7.54362 11.1124
      vertex -0.00154114 7.39911 11.1609
    endloop
  endfacet
  facet normal -8.69066e-08 0.31778 0.948165
    outer loop
      vertex 3.48563 7.39911 11.1609
      vertex 3.48563 7.54362 11.1124
      vertex -0.00154114 7.54362 11.1124
    endloop
  endfacet
  facet normal -6.2613e-08 0.228949 0.973439
    outer loop
      vertex 3.48563 7.54362 11.1124
      vertex -0.00154114 7.69197 11.0776
      vertex -0.00154114 7.54362 11.1124
    endloop
  endfacet
  facet normal 0 0.22895 0.973438
    outer loop
      vertex 3.48563 7.54362 11.1124
      vertex 3.48563 7.69197 11.0776
      vertex -0.00154114 7.69197 11.0776
    endloop
  endfacet
  facet normal 0 0.138165 0.990409
    outer loop
      vertex 3.48563 7.69197 11.0776
      vertex -0.00154114 7.84292 11.0565
      vertex -0.00154114 7.69197 11.0776
    endloop
  endfacet
  facet normal -3.77853e-08 0.138164 0.990409
    outer loop
      vertex 3.48563 7.69197 11.0776
      vertex 3.48563 7.84292 11.0565
      vertex -0.00154114 7.84292 11.0565
    endloop
  endfacet
  facet normal -1.26294e-08 0.0461803 0.998933
    outer loop
      vertex -0.00154114 7.99516 11.0495
      vertex 3.48563 7.84292 11.0565
      vertex 3.48563 7.99516 11.0495
    endloop
  endfacet
  facet normal -1.26294e-08 0.0461803 0.998933
    outer loop
      vertex 3.48563 7.84292 11.0565
      vertex -0.00154114 7.99516 11.0495
      vertex -0.00154114 7.84292 11.0565
    endloop
  endfacet
  facet normal 1.26293e-08 -0.04618 0.998933
    outer loop
      vertex 3.48563 7.99516 11.0495
      vertex -0.00154114 8.1474 11.0565
      vertex -0.00154114 7.99516 11.0495
    endloop
  endfacet
  facet normal 0 -0.0461803 0.998933
    outer loop
      vertex 3.48563 7.99516 11.0495
      vertex 3.48563 8.1474 11.0565
      vertex -0.00154114 8.1474 11.0565
    endloop
  endfacet
  facet normal 0 -0.138165 0.990409
    outer loop
      vertex -0.00154114 8.29835 11.0776
      vertex 3.48563 8.1474 11.0565
      vertex 3.48563 8.29835 11.0776
    endloop
  endfacet
  facet normal 0 -0.138165 0.990409
    outer loop
      vertex 3.48563 8.1474 11.0565
      vertex -0.00154114 8.29835 11.0776
      vertex -0.00154114 8.1474 11.0565
    endloop
  endfacet
  facet normal 0 -0.228949 0.973439
    outer loop
      vertex -0.00154114 8.44671 11.1124
      vertex 3.48563 8.29835 11.0776
      vertex 3.48563 8.44671 11.1124
    endloop
  endfacet
  facet normal 0 -0.228949 0.973439
    outer loop
      vertex 3.48563 8.29835 11.0776
      vertex -0.00154114 8.44671 11.1124
      vertex -0.00154114 8.29835 11.0776
    endloop
  endfacet
  facet normal 0 -0.317782 0.948164
    outer loop
      vertex -0.00154114 8.59121 11.1609
      vertex 3.48563 8.44671 11.1124
      vertex 3.48563 8.59121 11.1609
    endloop
  endfacet
  facet normal 0 -0.317782 0.948164
    outer loop
      vertex 3.48563 8.44671 11.1124
      vertex -0.00154114 8.59121 11.1609
      vertex -0.00154114 8.44671 11.1124
    endloop
  endfacet
  facet normal 0 -0.403931 0.914789
    outer loop
      vertex -0.00154114 8.73063 11.2224
      vertex 3.48563 8.59121 11.1609
      vertex 3.48563 8.73063 11.2224
    endloop
  endfacet
  facet normal 0 -0.403931 0.914789
    outer loop
      vertex 3.48563 8.59121 11.1609
      vertex -0.00154114 8.73063 11.2224
      vertex -0.00154114 8.59121 11.1609
    endloop
  endfacet
  facet normal 0 -0.486607 0.873621
    outer loop
      vertex 3.48563 8.73063 11.2224
      vertex -0.00154114 8.86377 11.2966
      vertex -0.00154114 8.73063 11.2224
    endloop
  endfacet
  facet normal 1.33077e-07 -0.486605 0.873622
    outer loop
      vertex 3.48563 8.73063 11.2224
      vertex 3.48563 8.86378 11.2966
      vertex -0.00154114 8.86377 11.2966
    endloop
  endfacet
  facet normal 1.54552e-07 -0.565128 0.825003
    outer loop
      vertex 3.48563 8.86378 11.2966
      vertex -0.00154114 8.98951 11.3827
      vertex -0.00154114 8.86377 11.2966
    endloop
  endfacet
  facet normal 0 -0.565131 0.825001
    outer loop
      vertex 3.48563 8.86378 11.2966
      vertex 3.48563 8.98951 11.3827
      vertex -0.00154114 8.98951 11.3827
    endloop
  endfacet
  facet normal 0 -0.638843 0.769337
    outer loop
      vertex 3.48563 8.98951 11.3827
      vertex -0.00154114 9.10676 11.4801
      vertex -0.00154114 8.98951 11.3827
    endloop
  endfacet
  facet normal 1.7471e-07 -0.63884 0.76934
    outer loop
      vertex 3.48563 8.98951 11.3827
      vertex 3.48563 9.10676 11.4801
      vertex -0.00154114 9.10676 11.4801
    endloop
  endfacet
  facet normal 1.93382e-07 -0.707113 0.707101
    outer loop
      vertex -0.00154114 9.10676 11.4801
      vertex 3.48563 9.21453 11.5879
      vertex -0.00154114 9.21453 11.5879
    endloop
  endfacet
  facet normal 1.93382e-07 -0.707113 0.707101
    outer loop
      vertex 3.48563 9.21453 11.5879
      vertex -0.00154114 9.10676 11.4801
      vertex 3.48563 9.10676 11.4801
    endloop
  endfacet
  facet normal 2.10396e-07 -0.769329 0.638853
    outer loop
      vertex 3.48563 9.21453 11.5879
      vertex -0.00154114 9.31189 11.7051
      vertex -0.00154114 9.21453 11.5879
    endloop
  endfacet
  facet normal 0 -0.769332 0.638849
    outer loop
      vertex 3.48563 9.21453 11.5879
      vertex 3.48563 9.31189 11.7051
      vertex -0.00154114 9.31189 11.7051
    endloop
  endfacet
  facet normal 0 -0.825001 0.565131
    outer loop
      vertex -0.00154114 9.31189 11.7051
      vertex 3.48563 9.39802 11.8308
      vertex -0.00154114 9.39802 11.8308
    endloop
  endfacet
  facet normal 0 -0.825001 0.565131
    outer loop
      vertex 3.48563 9.39802 11.8308
      vertex -0.00154114 9.31189 11.7051
      vertex 3.48563 9.31189 11.7051
    endloop
  endfacet
  facet normal 0 -0.873621 0.486607
    outer loop
      vertex -0.00154114 9.39802 11.8308
      vertex 3.48563 9.47218 11.964
      vertex -0.00154114 9.47218 11.964
    endloop
  endfacet
  facet normal 0 -0.873621 0.486607
    outer loop
      vertex 3.48563 9.47218 11.964
      vertex -0.00154114 9.39802 11.8308
      vertex 3.48563 9.39802 11.8308
    endloop
  endfacet
  facet normal 0 -0.914794 0.403921
    outer loop
      vertex -0.00154114 9.47218 11.964
      vertex 3.48563 9.53374 12.1034
      vertex -0.00154114 9.53374 12.1034
    endloop
  endfacet
  facet normal 0 -0.914794 0.403921
    outer loop
      vertex 3.48563 9.53374 12.1034
      vertex -0.00154114 9.47218 11.964
      vertex 3.48563 9.47218 11.964
    endloop
  endfacet
  facet normal 0 -0.94816 0.317793
    outer loop
      vertex -0.00154114 9.53374 12.1034
      vertex 3.48563 9.58217 12.2479
      vertex -0.00154114 9.58217 12.2479
    endloop
  endfacet
  facet normal 0 -0.94816 0.317793
    outer loop
      vertex 3.48563 9.58217 12.2479
      vertex -0.00154114 9.53374 12.1034
      vertex 3.48563 9.53374 12.1034
    endloop
  endfacet
  facet normal 0 -0.973439 0.228949
    outer loop
      vertex -0.00154114 9.58217 12.2479
      vertex 3.48563 9.61707 12.3963
      vertex -0.00154114 9.61707 12.3963
    endloop
  endfacet
  facet normal 0 -0.973439 0.228949
    outer loop
      vertex 3.48563 9.61707 12.3963
      vertex -0.00154114 9.58217 12.2479
      vertex 3.48563 9.58217 12.2479
    endloop
  endfacet
  facet normal 0 -0.990411 0.138153
    outer loop
      vertex -0.00154114 9.61707 12.3963
      vertex 3.48563 9.63812 12.5472
      vertex -0.00154114 9.63812 12.5472
    endloop
  endfacet
  facet normal 0 -0.990411 0.138153
    outer loop
      vertex 3.48563 9.63812 12.5472
      vertex -0.00154114 9.61707 12.3963
      vertex 3.48563 9.61707 12.3963
    endloop
  endfacet
  facet normal 0 -0.998933 0.0461809
    outer loop
      vertex 3.48563 9.63812 12.5472
      vertex -0.00154114 9.64516 12.6995
      vertex -0.00154114 9.63812 12.5472
    endloop
  endfacet
  facet normal 2.73189e-07 -0.998933 0.0461871
    outer loop
      vertex 3.48563 9.63812 12.5472
      vertex 3.48563 9.64516 12.6995
      vertex -0.00154114 9.64516 12.6995
    endloop
  endfacet
  facet normal 2.73189e-07 -0.998933 -0.0461797
    outer loop
      vertex -0.00154114 9.64516 12.6995
      vertex 3.48563 9.64516 12.6995
      vertex -0.00154114 9.63812 12.8517
    endloop
  endfacet
  facet normal 0 -0.998933 -0.0461859
    outer loop
      vertex 3.48563 9.64516 12.6995
      vertex 3.48563 9.63812 12.8517
      vertex -0.00154114 9.63812 12.8517
    endloop
  endfacet
  facet normal 0 -0.990411 -0.138153
    outer loop
      vertex -0.00154114 9.63812 12.8517
      vertex 3.48563 9.61707 13.0026
      vertex -0.00154114 9.61707 13.0026
    endloop
  endfacet
  facet normal 0 -0.990411 -0.138153
    outer loop
      vertex 3.48563 9.61707 13.0026
      vertex -0.00154114 9.63812 12.8517
      vertex 3.48563 9.63812 12.8517
    endloop
  endfacet
  facet normal 0 -0.973439 -0.228949
    outer loop
      vertex -0.00154114 9.61707 13.0026
      vertex 3.48563 9.58217 13.151
      vertex -0.00154114 9.58217 13.151
    endloop
  endfacet
  facet normal 0 -0.973439 -0.228949
    outer loop
      vertex 3.48563 9.58217 13.151
      vertex -0.00154114 9.61707 13.0026
      vertex 3.48563 9.61707 13.0026
    endloop
  endfacet
  facet normal 0 -0.94816 -0.317793
    outer loop
      vertex -0.00154114 9.58217 13.151
      vertex 3.48563 9.53374 13.2955
      vertex -0.00154114 9.53374 13.2955
    endloop
  endfacet
  facet normal 0 -0.94816 -0.317793
    outer loop
      vertex 3.48563 9.53374 13.2955
      vertex -0.00154114 9.58217 13.151
      vertex 3.48563 9.58217 13.151
    endloop
  endfacet
  facet normal 0 -0.914794 -0.403921
    outer loop
      vertex -0.00154114 9.53374 13.2955
      vertex 3.48563 9.47218 13.4349
      vertex -0.00154114 9.47218 13.4349
    endloop
  endfacet
  facet normal 0 -0.914794 -0.403921
    outer loop
      vertex 3.48563 9.47218 13.4349
      vertex -0.00154114 9.53374 13.2955
      vertex 3.48563 9.53374 13.2955
    endloop
  endfacet
  facet normal 0 -0.873621 -0.486607
    outer loop
      vertex -0.00154114 9.47218 13.4349
      vertex 3.48563 9.39802 13.5681
      vertex -0.00154114 9.39802 13.5681
    endloop
  endfacet
  facet normal 0 -0.873621 -0.486607
    outer loop
      vertex 3.48563 9.39802 13.5681
      vertex -0.00154114 9.47218 13.4349
      vertex 3.48563 9.47218 13.4349
    endloop
  endfacet
  facet normal 0 -0.825001 -0.565131
    outer loop
      vertex -0.00154114 9.39802 13.5681
      vertex 3.48563 9.31189 13.6938
      vertex -0.00154114 9.31189 13.6938
    endloop
  endfacet
  facet normal 0 -0.825001 -0.565131
    outer loop
      vertex 3.48563 9.31189 13.6938
      vertex -0.00154114 9.39802 13.5681
      vertex 3.48563 9.39802 13.5681
    endloop
  endfacet
  facet normal 0 -0.769329 -0.638853
    outer loop
      vertex -0.00154114 9.31189 13.6938
      vertex 3.48563 9.31189 13.6938
      vertex -0.00154114 9.21453 13.8111
    endloop
  endfacet
  facet normal 2.10397e-07 -0.769332 -0.638849
    outer loop
      vertex 3.48563 9.31189 13.6938
      vertex 3.48563 9.21453 13.8111
      vertex -0.00154114 9.21453 13.8111
    endloop
  endfacet
  facet normal 1.93382e-07 -0.707113 -0.707101
    outer loop
      vertex -0.00154114 9.21453 13.8111
      vertex 3.48563 9.10676 13.9188
      vertex -0.00154114 9.10676 13.9188
    endloop
  endfacet
  facet normal 1.93382e-07 -0.707113 -0.707101
    outer loop
      vertex 3.48563 9.10676 13.9188
      vertex -0.00154114 9.21453 13.8111
      vertex 3.48563 9.21453 13.8111
    endloop
  endfacet
  facet normal 1.74703e-07 -0.638813 -0.769362
    outer loop
      vertex -0.00154114 9.10676 13.9188
      vertex 3.48563 9.10676 13.9188
      vertex -0.00154114 8.98951 14.0162
    endloop
  endfacet
  facet normal 0 -0.63881 -0.769364
    outer loop
      vertex 3.48563 9.10676 13.9188
      vertex 3.48563 8.98951 14.0162
      vertex -0.00154114 8.98951 14.0162
    endloop
  endfacet
  facet normal 0 -0.565128 -0.825003
    outer loop
      vertex -0.00154114 8.98951 14.0162
      vertex 3.48563 8.98951 14.0162
      vertex -0.00154114 8.86377 14.1023
    endloop
  endfacet
  facet normal 1.54552e-07 -0.565131 -0.825001
    outer loop
      vertex 3.48563 8.98951 14.0162
      vertex 3.48563 8.86378 14.1023
      vertex -0.00154114 8.86377 14.1023
    endloop
  endfacet
  facet normal 1.33083e-07 -0.486627 -0.87361
    outer loop
      vertex -0.00154114 8.86377 14.1023
      vertex 3.48563 8.86378 14.1023
      vertex -0.00154114 8.73063 14.1765
    endloop
  endfacet
  facet normal 0 -0.486624 -0.873612
    outer loop
      vertex 3.48563 8.86378 14.1023
      vertex 3.48563 8.73063 14.1765
      vertex -0.00154114 8.73063 14.1765
    endloop
  endfacet
  facet normal 0 -0.403889 -0.914808
    outer loop
      vertex -0.00154114 8.59121 14.238
      vertex 3.48563 8.73063 14.1765
      vertex 3.48563 8.59121 14.238
    endloop
  endfacet
  facet normal -0 -0.403889 -0.914808
    outer loop
      vertex 3.48563 8.73063 14.1765
      vertex -0.00154114 8.59121 14.238
      vertex -0.00154114 8.73063 14.1765
    endloop
  endfacet
  facet normal 0 -0.317827 -0.948149
    outer loop
      vertex -0.00154114 8.44671 14.2865
      vertex 3.48563 8.59121 14.238
      vertex 3.48563 8.44671 14.2865
    endloop
  endfacet
  facet normal -0 -0.317827 -0.948149
    outer loop
      vertex 3.48563 8.59121 14.238
      vertex -0.00154114 8.44671 14.2865
      vertex -0.00154114 8.59121 14.238
    endloop
  endfacet
  facet normal 0 -0.228925 -0.973444
    outer loop
      vertex -0.00154114 8.29835 14.3214
      vertex 3.48563 8.44671 14.2865
      vertex 3.48563 8.29835 14.3214
    endloop
  endfacet
  facet normal -0 -0.228925 -0.973444
    outer loop
      vertex 3.48563 8.44671 14.2865
      vertex -0.00154114 8.29835 14.3214
      vertex -0.00154114 8.44671 14.2865
    endloop
  endfacet
  facet normal 0 -0.138165 -0.990409
    outer loop
      vertex -0.00154114 8.1474 14.3424
      vertex 3.48563 8.29835 14.3214
      vertex 3.48563 8.1474 14.3424
    endloop
  endfacet
  facet normal -0 -0.138165 -0.990409
    outer loop
      vertex 3.48563 8.29835 14.3214
      vertex -0.00154114 8.1474 14.3424
      vertex -0.00154114 8.29835 14.3214
    endloop
  endfacet
  facet normal 0 -0.046205 -0.998932
    outer loop
      vertex -0.00154114 8.1474 14.3424
      vertex 3.48563 8.1474 14.3424
      vertex -0.00154114 7.99516 14.3495
    endloop
  endfacet
  facet normal 1.26362e-08 -0.0462052 -0.998932
    outer loop
      vertex 3.48563 8.1474 14.3424
      vertex 3.48563 7.99516 14.3495
      vertex -0.00154114 7.99516 14.3495
    endloop
  endfacet
  facet normal -1.26362e-08 0.0462052 -0.998932
    outer loop
      vertex -0.00154114 7.84292 14.3424
      vertex 3.48563 7.99516 14.3495
      vertex 3.48563 7.84292 14.3424
    endloop
  endfacet
  facet normal -1.26362e-08 0.0462052 -0.998932
    outer loop
      vertex 3.48563 7.99516 14.3495
      vertex -0.00154114 7.84292 14.3424
      vertex -0.00154114 7.99516 14.3495
    endloop
  endfacet
  facet normal -3.77855e-08 0.138165 -0.990409
    outer loop
      vertex -0.00154114 7.84292 14.3424
      vertex 3.48563 7.84292 14.3424
      vertex -0.00154114 7.69197 14.3214
    endloop
  endfacet
  facet normal 0 0.138164 -0.990409
    outer loop
      vertex 3.48563 7.84292 14.3424
      vertex 3.48563 7.69197 14.3214
      vertex -0.00154114 7.69197 14.3214
    endloop
  endfacet
  facet normal 0 0.228925 -0.973444
    outer loop
      vertex -0.00154114 7.69197 14.3214
      vertex 3.48563 7.69197 14.3214
      vertex -0.00154114 7.54362 14.2865
    endloop
  endfacet
  facet normal -6.26069e-08 0.228926 -0.973444
    outer loop
      vertex 3.48563 7.69197 14.3214
      vertex 3.48563 7.54362 14.2865
      vertex -0.00154114 7.54362 14.2865
    endloop
  endfacet
  facet normal -8.69194e-08 0.317827 -0.948149
    outer loop
      vertex -0.00154114 7.54362 14.2865
      vertex 3.48563 7.54362 14.2865
      vertex -0.00154114 7.39911 14.238
    endloop
  endfacet
  facet normal 0 0.317825 -0.948149
    outer loop
      vertex 3.48563 7.54362 14.2865
      vertex 3.48563 7.39911 14.238
      vertex -0.00154114 7.39911 14.238
    endloop
  endfacet
  facet normal 0 0.403889 -0.914808
    outer loop
      vertex -0.00154114 7.25969 14.1765
      vertex 3.48563 7.39911 14.238
      vertex 3.48563 7.25969 14.1765
    endloop
  endfacet
  facet normal 0 0.403889 -0.914808
    outer loop
      vertex 3.48563 7.39911 14.238
      vertex -0.00154114 7.25969 14.1765
      vertex -0.00154114 7.39911 14.238
    endloop
  endfacet
  facet normal 0 0.486627 -0.87361
    outer loop
      vertex -0.00154114 7.12655 14.1023
      vertex 3.48563 7.25969 14.1765
      vertex 3.48563 7.12655 14.1023
    endloop
  endfacet
  facet normal 0 0.486627 -0.87361
    outer loop
      vertex 3.48563 7.25969 14.1765
      vertex -0.00154114 7.12655 14.1023
      vertex -0.00154114 7.25969 14.1765
    endloop
  endfacet
  facet normal 0 0.565128 -0.825003
    outer loop
      vertex -0.00154114 7.00081 14.0162
      vertex 3.48563 7.12655 14.1023
      vertex 3.48563 7.00081 14.0162
    endloop
  endfacet
  facet normal 0 0.565128 -0.825003
    outer loop
      vertex 3.48563 7.12655 14.1023
      vertex -0.00154114 7.00081 14.0162
      vertex -0.00154114 7.12655 14.1023
    endloop
  endfacet
  facet normal 0 0.638813 -0.769362
    outer loop
      vertex -0.00154114 6.88356 13.9188
      vertex 3.48563 7.00081 14.0162
      vertex 3.48563 6.88356 13.9188
    endloop
  endfacet
  facet normal 0 0.638813 -0.769362
    outer loop
      vertex 3.48563 7.00081 14.0162
      vertex -0.00154114 6.88356 13.9188
      vertex -0.00154114 7.00081 14.0162
    endloop
  endfacet
  facet normal 0 0.707113 -0.707101
    outer loop
      vertex 3.48563 6.7758 13.8111
      vertex -0.00154114 6.88356 13.9188
      vertex 3.48563 6.88356 13.9188
    endloop
  endfacet
  facet normal 0 0.707113 -0.707101
    outer loop
      vertex -0.00154114 6.88356 13.9188
      vertex 3.48563 6.7758 13.8111
      vertex -0.00154114 6.7758 13.8111
    endloop
  endfacet
  facet normal 0 0.769329 -0.638853
    outer loop
      vertex 3.48563 6.67843 13.6938
      vertex -0.00154114 6.7758 13.8111
      vertex 3.48563 6.7758 13.8111
    endloop
  endfacet
  facet normal 0 0.769329 -0.638853
    outer loop
      vertex -0.00154114 6.7758 13.8111
      vertex 3.48563 6.67843 13.6938
      vertex -0.00154114 6.67843 13.6938
    endloop
  endfacet
  facet normal 0 0.825001 -0.565131
    outer loop
      vertex 3.48563 6.5923 13.5681
      vertex -0.00154114 6.67843 13.6938
      vertex 3.48563 6.67843 13.6938
    endloop
  endfacet
  facet normal 0 0.825001 -0.565131
    outer loop
      vertex -0.00154114 6.67843 13.6938
      vertex 3.48563 6.5923 13.5681
      vertex -0.00154114 6.5923 13.5681
    endloop
  endfacet
  facet normal 0 0.873621 -0.486607
    outer loop
      vertex -0.00154114 6.5923 13.5681
      vertex 3.48563 6.5923 13.5681
      vertex -0.00154114 6.51814 13.4349
    endloop
  endfacet
  facet normal -2.38919e-07 0.873623 -0.486603
    outer loop
      vertex 3.48563 6.5923 13.5681
      vertex 3.48563 6.51814 13.4349
      vertex -0.00154114 6.51814 13.4349
    endloop
  endfacet
  facet normal -2.50178e-07 0.914794 -0.403921
    outer loop
      vertex 3.48563 6.45658 13.2955
      vertex -0.00154114 6.51814 13.4349
      vertex 3.48563 6.51814 13.4349
    endloop
  endfacet
  facet normal -2.50178e-07 0.914794 -0.403921
    outer loop
      vertex -0.00154114 6.51814 13.4349
      vertex 3.48563 6.45658 13.2955
      vertex -0.00154114 6.45658 13.2955
    endloop
  endfacet
  facet normal -2.59304e-07 0.948162 -0.317787
    outer loop
      vertex -0.00154114 6.45658 13.2955
      vertex 3.48563 6.45658 13.2955
      vertex -0.00154114 6.40815 13.151
    endloop
  endfacet
  facet normal 0 0.94816 -0.317793
    outer loop
      vertex 3.48563 6.45658 13.2955
      vertex 3.48563 6.40815 13.151
      vertex -0.00154114 6.40815 13.151
    endloop
  endfacet
  facet normal 0 0.973437 -0.228955
    outer loop
      vertex 3.48563 6.37326 13.0026
      vertex -0.00154114 6.40815 13.151
      vertex 3.48563 6.40815 13.151
    endloop
  endfacet
  facet normal 0 0.973437 -0.228955
    outer loop
      vertex -0.00154114 6.40815 13.151
      vertex 3.48563 6.37326 13.0026
      vertex -0.00154114 6.37326 13.0026
    endloop
  endfacet
  facet normal 0 0.990411 -0.138153
    outer loop
      vertex 3.48563 6.3522 12.8517
      vertex -0.00154114 6.37326 13.0026
      vertex 3.48563 6.37326 13.0026
    endloop
  endfacet
  facet normal 0 0.990411 -0.138153
    outer loop
      vertex -0.00154114 6.37326 13.0026
      vertex 3.48563 6.3522 12.8517
      vertex -0.00154114 6.3522 12.8517
    endloop
  endfacet
  facet normal 0 -1 0
    outer loop
      vertex -0.00154114 -0.00476933 22.3995
      vertex 2.99846 -0.00476933 25.3995
      vertex 2.79373 -0.00476933 25.3925
    endloop
  endfacet
  facet normal 0 -1 0
    outer loop
      vertex -0.00154114 -0.00476933 22.3995
      vertex 2.79373 -0.00476933 25.3925
      vertex 2.58996 -0.00476933 25.3715
    endloop
  endfacet
  facet normal 0 -1 0
    outer loop
      vertex 2.18907 -0.00476933 25.2882
      vertex 2.58996 -0.00476933 25.3715
      vertex 2.38809 -0.00476933 25.3367
    endloop
  endfacet
  facet normal 0 -1 0
    outer loop
      vertex 1.99382 -0.00476933 25.2262
      vertex 2.58996 -0.00476933 25.3715
      vertex 2.18907 -0.00476933 25.2882
    endloop
  endfacet
  facet normal 0 -1 0
    outer loop
      vertex 1.80325 -0.00476933 25.1511
      vertex 2.58996 -0.00476933 25.3715
      vertex 1.99382 -0.00476933 25.2262
    endloop
  endfacet
  facet normal 0 -1 0
    outer loop
      vertex 1.61826 -0.00476933 25.0631
      vertex 2.58996 -0.00476933 25.3715
      vertex 1.80325 -0.00476933 25.1511
    endloop
  endfacet
  facet normal 0 -1 0
    outer loop
      vertex 1.4397 -0.00476933 24.9627
      vertex 2.58996 -0.00476933 25.3715
      vertex 1.61826 -0.00476933 25.0631
    endloop
  endfacet
  facet normal 0 -1 0
    outer loop
      vertex 1.26842 -0.00476933 24.8504
      vertex 2.58996 -0.00476933 25.3715
      vertex 1.4397 -0.00476933 24.9627
    endloop
  endfacet
  facet normal 0 -1 0
    outer loop
      vertex 1.10519 -0.00476933 24.7266
      vertex 2.58996 -0.00476933 25.3715
      vertex 1.26842 -0.00476933 24.8504
    endloop
  endfacet
  facet normal 0 -1 0
    outer loop
      vertex 0.950798 -0.00476933 24.592
      vertex 2.58996 -0.00476933 25.3715
      vertex 1.10519 -0.00476933 24.7266
    endloop
  endfacet
  facet normal 0 -1 0
    outer loop
      vertex 0.805954 -0.00476933 24.4471
      vertex 2.58996 -0.00476933 25.3715
      vertex 0.950798 -0.00476933 24.592
    endloop
  endfacet
  facet normal 0 -1 0
    outer loop
      vertex 0.671326 -0.00476933 24.2927
      vertex 2.58996 -0.00476933 25.3715
      vertex 0.805954 -0.00476933 24.4471
    endloop
  endfacet
  facet normal 0 -1 0
    outer loop
      vertex 0.547546 -0.00476933 24.1295
      vertex 2.58996 -0.00476933 25.3715
      vertex 0.671326 -0.00476933 24.2927
    endloop
  endfacet
  facet normal 0 -1 0
    outer loop
      vertex 0.435204 -0.00476933 23.9582
      vertex 2.58996 -0.00476933 25.3715
      vertex 0.547546 -0.00476933 24.1295
    endloop
  endfacet
  facet normal 0 -1 0
    outer loop
      vertex 0.334801 -0.00476933 23.7796
      vertex 2.58996 -0.00476933 25.3715
      vertex 0.435204 -0.00476933 23.9582
    endloop
  endfacet
  facet normal 0 -1 0
    outer loop
      vertex 0.246826 -0.00476933 23.5947
      vertex 2.58996 -0.00476933 25.3715
      vertex 0.334801 -0.00476933 23.7796
    endloop
  endfacet
  facet normal 0 -1 0
    outer loop
      vertex 0.171677 -0.00476933 23.4041
      vertex 2.58996 -0.00476933 25.3715
      vertex 0.246826 -0.00476933 23.5947
    endloop
  endfacet
  facet normal 0 -1 0
    outer loop
      vertex 0.109711 -0.00476933 23.2088
      vertex 2.58996 -0.00476933 25.3715
      vertex 0.171677 -0.00476933 23.4041
    endloop
  endfacet
  facet normal 0 -1 0
    outer loop
      vertex 0.0612106 -0.00476933 23.0098
      vertex 2.58996 -0.00476933 25.3715
      vertex 0.109711 -0.00476933 23.2088
    endloop
  endfacet
  facet normal 0 -1 0
    outer loop
      vertex 0.0263977 -0.00476933 22.808
      vertex 2.58996 -0.00476933 25.3715
      vertex 0.0612106 -0.00476933 23.0098
    endloop
  endfacet
  facet normal 0 -1 0
    outer loop
      vertex 0.00545502 -0.00476933 22.6042
      vertex 2.58996 -0.00476933 25.3715
      vertex 0.0263977 -0.00476933 22.808
    endloop
  endfacet
  facet normal 0 -1 0
    outer loop
      vertex -0.00154114 -0.00476933 22.3995
      vertex 2.58996 -0.00476933 25.3715
      vertex 0.00545502 -0.00476933 22.6042
    endloop
  endfacet
  facet normal 0 -1 -0
    outer loop
      vertex 2.99846 -0.00476933 25.3995
      vertex -0.00154114 -0.00476933 22.3995
      vertex 3.48563 -0.00476933 25.3995
    endloop
  endfacet
  facet normal 0 -1 0
    outer loop
      vertex 3.48563 -0.00476933 -0.000537872
      vertex -0.00154114 -0.00476933 22.3995
      vertex -0.00154114 -0.00476933 -0.000537872
    endloop
  endfacet
  facet normal 0 -1 0
    outer loop
      vertex -0.00154114 -0.00476933 22.3995
      vertex 3.48563 -0.00476933 -0.000537872
      vertex 3.48563 -0.00476933 25.3995
    endloop
  endfacet
  facet normal -0 0 1
    outer loop
      vertex -0.00154114 24.9952 10
      vertex 4.44675 24.087 10
      vertex 3.48563 24.9952 10
    endloop
  endfacet
  facet normal 0 0 1
    outer loop
      vertex 4.44675 24.087 10
      vertex -0.00154114 24.9952 10
      vertex 4.44675 19.9033 10
    endloop
  endfacet
  facet normal 0 0 1
    outer loop
      vertex 4.44675 19.9033 10
      vertex -0.00154114 24.9952 10
      vertex 3.48563 18.9952 10
    endloop
  endfacet
  facet normal 0 0 1
    outer loop
      vertex -0.00154114 12 10
      vertex 3.48563 18.9952 10
      vertex -0.00154114 24.9952 10
    endloop
  endfacet
  facet normal 0 0 1
    outer loop
      vertex 3.48563 18.9952 10
      vertex -0.00154114 12 10
      vertex 3.48563 12 10
    endloop
  endfacet
  facet normal 0 1 0
    outer loop
      vertex -0.00154114 12 22.3995
      vertex 2.99846 12 25.3995
      vertex 3.48563 12 25.3995
    endloop
  endfacet
  facet normal 0 1 0
    outer loop
      vertex 2.99846 12 25.3995
      vertex -0.00154114 12 22.3995
      vertex 2.81732 12 25.394
    endloop
  endfacet
  facet normal 0 1 0
    outer loop
      vertex 2.81732 12 25.394
      vertex -0.00154114 12 22.3995
      vertex 2.61116 12 25.3744
    endloop
  endfacet
  facet normal 0 1 0
    outer loop
      vertex 2.61116 12 25.3744
      vertex -0.00154114 12 22.3995
      vertex 2.40684 12 25.3405
    endloop
  endfacet
  facet normal 0 1 0
    outer loop
      vertex 2.40684 12 25.3405
      vertex 2.00762 12 25.2311
      vertex 2.20535 12 25.2927
    endloop
  endfacet
  facet normal 0 1 0
    outer loop
      vertex 2.40684 12 25.3405
      vertex 1.81462 12 25.156
      vertex 2.00762 12 25.2311
    endloop
  endfacet
  facet normal 0 1 0
    outer loop
      vertex 2.40684 12 25.3405
      vertex 1.62727 12 25.0678
      vertex 1.81462 12 25.156
    endloop
  endfacet
  facet normal 0 1 0
    outer loop
      vertex 2.40684 12 25.3405
      vertex 1.44645 12 24.9668
      vertex 1.62727 12 25.0678
    endloop
  endfacet
  facet normal 0 1 0
    outer loop
      vertex 2.40684 12 25.3405
      vertex 1.27302 12 24.8536
      vertex 1.44645 12 24.9668
    endloop
  endfacet
  facet normal 0 1 0
    outer loop
      vertex 2.40684 12 25.3405
      vertex 1.10782 12 24.7287
      vertex 1.27302 12 24.8536
    endloop
  endfacet
  facet normal 0 1 0
    outer loop
      vertex 2.40684 12 25.3405
      vertex 0.950798 12 24.592
      vertex 1.10782 12 24.7287
    endloop
  endfacet
  facet normal 0 1 0
    outer loop
      vertex 2.40684 12 25.3405
      vertex 0.805954 12 24.4471
      vertex 0.950798 12 24.592
    endloop
  endfacet
  facet normal 0 1 0
    outer loop
      vertex 2.40684 12 25.3405
      vertex 0.669197 12 24.2901
      vertex 0.805954 12 24.4471
    endloop
  endfacet
  facet normal 0 1 0
    outer loop
      vertex 2.40684 12 25.3405
      vertex 0.544312 12 24.1249
      vertex 0.669197 12 24.2901
    endloop
  endfacet
  facet normal 0 1 0
    outer loop
      vertex 2.40684 12 25.3405
      vertex 0.431114 12 23.9515
      vertex 0.544312 12 24.1249
    endloop
  endfacet
  facet normal 0 1 0
    outer loop
      vertex 2.40684 12 25.3405
      vertex 0.330154 12 23.7706
      vertex 0.431114 12 23.9515
    endloop
  endfacet
  facet normal 0 1 0
    outer loop
      vertex 2.40684 12 25.3405
      vertex 0.241913 12 23.5833
      vertex 0.330154 12 23.7706
    endloop
  endfacet
  facet normal 0 1 0
    outer loop
      vertex 2.40684 12 25.3405
      vertex 0.166809 12 23.3903
      vertex 0.241913 12 23.5833
    endloop
  endfacet
  facet normal 0 1 0
    outer loop
      vertex 2.40684 12 25.3405
      vertex 0.105194 12 23.1926
      vertex 0.166809 12 23.3903
    endloop
  endfacet
  facet normal 0 1 0
    outer loop
      vertex 2.40684 12 25.3405
      vertex 0.057373 12 22.9911
      vertex 0.105194 12 23.1926
    endloop
  endfacet
  facet normal 0 1 0
    outer loop
      vertex 2.40684 12 25.3405
      vertex 0.0235672 12 22.7868
      vertex 0.057373 12 22.9911
    endloop
  endfacet
  facet normal 0 1 0
    outer loop
      vertex 2.40684 12 25.3405
      vertex 0.00392914 12 22.5806
      vertex 0.0235672 12 22.7868
    endloop
  endfacet
  facet normal 0 1 0
    outer loop
      vertex 2.40684 12 25.3405
      vertex -0.00154114 12 22.3995
      vertex 0.00392914 12 22.5806
    endloop
  endfacet
  facet normal 0 1 -0
    outer loop
      vertex 3.48563 12 10
      vertex -0.00154114 12 22.3995
      vertex 3.48563 12 25.3995
    endloop
  endfacet
  facet normal 0 1 0
    outer loop
      vertex -0.00154114 12 22.3995
      vertex 3.48563 12 10
      vertex -0.00154114 12 10
    endloop
  endfacet
endsolid OpenSCAD_Model
